# xmcd
#
# Track frame offsets:
#	151
#	18296
#	34095
#	48530
#	59507
#	73758
#	96208
#	112536
#	124520
#	145787
#
# Disc length: 2147 seconds
#
# Revision: 1
# Processed by: cddbd v1.5.1PL2 Copyright (c) Steve Scherf et al.
# Submitted via: audiograbber 1.83.01
#
DISCID=8108610a
DTITLE=Ray Johnson - Where I Come From
DYEAR=1999
DGENRE=Blues
TTITLE0=Where's That Going To Get You
TTITLE1=Feeling Kinda Blue
TTITLE2=Le Coeur de Mardi Gras
TTITLE3=Crystal Clear
TTITLE4=When The Feeling's Gone
TTITLE5=Where I Come From
TTITLE6=Shoot To Kill
TTITLE7=The Grind
TTITLE8=Santana Jct
TTITLE9=Where Will I Be
EXTD=
EXTT0=
EXTT1=
EXTT2=
EXTT3=
EXTT4=
EXTT5=
EXTT6=
EXTT7=
EXTT8=
EXTT9=
PLAYORDER=
